<svg xmlns="http://www.w3.org/2000/svg" viewBox="0 0 512 512"><style>.a{fill:#AD712C;}.b{fill:#C98A2E;}.c{fill:#674230;}.d{fill:#7A5436;}</style><circle cx="256" cy="256" r="256" fill="#D5A150"/><path d="M415.2 55.6c34.8 43.7 55.6 99 55.6 159.2 0 141.4-114.6 256-256 256 -60.2 0-115.5-20.8-159.2-55.6C102.5 474.2 174.8 512 256 512c141.4 0 256-114.6 256-256C512 174.8 474.2 102.5 415.2 55.6z" class="a"/><path d="M139.6 145.3c-5.3 0-10.5-2-14.6-6 -22.1-22.1-22.1-58 0-80.1 10.7-10.7 24.9-16.6 40.1-16.6 15.1 0 29.4 5.9 40.1 16.6 8 8 8 21.1 0 29.1 -8 8-21.1 8-29.1 0 -2.9-2.9-6.8-4.5-10.9-4.5 -4.1 0-8 1.6-10.9 4.5 -6 6-6 15.8 0 21.9 8 8 8 21.1 0 29.1C150.1 143.3 144.8 145.3 139.6 145.3z" class="b"/><circle cx="165" cy="99.2" r="36.1" class="c"/><path d="M129.2 95.7c0 0.1 0 0.3 0 0.4 -1 11.9 8.8 22 20.8 21.6 0.8 0 1.6-0.1 2.4-0.2 17-1.7 30.6-15.4 32.2-32.4 0-0.1 0-0.3 0-0.4 1-11.9-8.8-22-20.8-21.6 -0.8 0-1.6 0.1-2.4 0.2C144.4 65 130.7 78.7 129.2 95.7z" class="d"/><path d="M57.1 310.1c-5.3 0-10.5-2-14.6-6 -22.1-22.1-22.1-58 0-80.1C53.3 213.2 67.5 207.4 82.6 207.4s29.4 5.9 40.1 16.6c8 8 8 21.1 0 29.1 -8 8-21.1 8-29.1 0 -2.9-2.9-6.8-4.5-10.9-4.5 -4.1 0-8 1.6-10.9 4.5 -6 6-6 15.8 0 21.9 8 8 8 21.1 0 29.1C67.7 308.1 62.4 310.1 57.1 310.1z" class="b"/><circle cx="82.6" cy="264" r="36.1" class="c"/><path d="M46.7 260.6c0 0.1 0 0.3 0 0.4 -1 11.9 8.8 22 20.8 21.6 0.8 0 1.6-0.1 2.4-0.2 17-1.7 30.6-15.4 32.2-32.4 0-0.1 0-0.3 0-0.4 1-11.9-8.8-22-20.8-21.6 -0.8 0-1.6 0.1-2.4 0.2C61.9 229.9 48.3 243.6 46.7 260.6z" class="d"/><path d="M129.3 413.1c-5.3 0-10.5-2-14.6-6 -22.1-22.1-22.1-58 0-80.1 10.7-10.7 24.9-16.6 40.1-16.6s29.4 5.9 40.1 16.6c8 8 8 21.1 0 29.1 -8 8-21.1 8-29.1 0 -2.9-2.9-6.8-4.5-10.9-4.5s-8 1.6-10.9 4.5c-6 6-6 15.8 0 21.9 8 8 8 21.1 0 29.1C139.8 411.1 134.5 413.1 129.3 413.1z" class="b"/><circle cx="154.7" cy="367" r="36.1" class="c"/><path d="M118.9 363.6c0 0.1 0 0.3 0 0.4 -1 11.9 8.8 22 20.8 21.6 0.8 0 1.6-0.1 2.4-0.2 17-1.7 30.6-15.4 32.2-32.4 0-0.1 0-0.3 0-0.4 1-11.9-8.8-22-20.8-21.6 -0.8 0-1.6 0.1-2.4 0.2C134.1 332.9 120.4 346.6 118.9 363.6z" class="d"/><path d="M242.6 485.2c-5.3 0-10.5-2-14.6-6 -22.1-22.1-22.1-58 0-80.1 10.7-10.7 24.9-16.6 40.1-16.6 15.1 0 29.4 5.9 40.1 16.6 8 8 8 21.1 0 29.1 -8 8-21.1 8-29.1 0 -2.9-2.9-6.8-4.5-10.9-4.5 -4.1 0-8 1.6-10.9 4.5 -6 6-6 15.8 0 21.9 8 8 8 21.1 0 29.1C253.1 483.2 247.8 485.2 242.6 485.2z" class="b"/><circle cx="268.1" cy="439.1" r="36.1" class="c"/><path d="M232.2 435.7c0 0.1 0 0.3 0 0.4 -1 11.9 8.8 22 20.8 21.6 0.8 0 1.6-0.1 2.4-0.2 17-1.7 30.6-15.4 32.2-32.4 0-0.1 0-0.3 0-0.4 1-11.9-8.8-22-20.8-21.6 -0.8 0-1.6 0.1-2.4 0.2C247.4 405 233.8 418.7 232.2 435.7z" class="d"/><path d="M263.2 196.9c-5.3 0-10.5-2-14.6-6 -22.1-22.1-22.1-58 0-80.1 10.7-10.7 24.9-16.6 40.1-16.6s29.4 5.9 40.1 16.6c8 8 8 21.1 0 29.1 -8 8-21.1 8-29.1 0 -2.9-2.9-6.8-4.5-10.9-4.5s-8 1.6-10.9 4.5c-6 6-6 15.8 0 21.9 8 8 8 21.1 0 29.1C273.7 194.9 268.4 196.9 263.2 196.9z" class="b"/><circle cx="288.7" cy="150.8" r="36.1" class="c"/><path d="M252.8 147.4c0 0.1 0 0.3 0 0.4 -1 11.9 8.8 22 20.8 21.6 0.8 0 1.6-0.1 2.4-0.2 17-1.7 30.6-15.4 32.2-32.4 0-0.1 0-0.3 0-0.4 1-11.9-8.8-22-20.8-21.6 -0.8 0-1.6 0.1-2.4 0.2C268 116.7 254.4 130.4 252.8 147.4z" class="d"/><path d="M386.8 382.2c-5.3 0-10.5-2-14.6-6 -22.1-22.1-22.1-58 0-80.1 10.7-10.7 24.9-16.6 40.1-16.6s29.4 5.9 40.1 16.6c8 8 8 21.1 0 29.1 -8 8-21.1 8-29.1 0 -2.9-2.9-6.8-4.5-10.9-4.5 -4.1 0-8 1.6-10.9 4.5 -6 6-6 15.8 0 21.9 8 8 8 21.1 0 29.1C397.3 380.2 392.1 382.2 386.8 382.2z" class="b"/><circle cx="412.3" cy="336.1" r="36.1" class="c"/><path d="M376.4 332.7c0 0.1 0 0.3 0 0.4 -1 11.9 8.8 22 20.8 21.6 0.8 0 1.6-0.1 2.4-0.2 17-1.7 30.6-15.4 32.2-32.4 0-0.1 0-0.3 0-0.4 1-11.9-8.8-22-20.8-21.6 -0.8 0-1.6 0.1-2.4 0.2C391.6 302 378 315.7 376.4 332.7z" class="d"/><path d="M376.5 186.5c-5.3 0-10.5-2-14.6-6 -22.1-22.1-22.1-58 0-80.1 10.7-10.7 24.9-16.6 40.1-16.6s29.4 5.9 40.1 16.6c8 8 8 21.1 0 29.1 -8 8-21.1 8-29.1 0 -2.9-2.9-6.8-4.5-10.9-4.5s-8 1.6-10.9 4.5c-6 6-6 15.8 0 21.9 8 8 8 21.1 0 29.1C387 184.5 381.8 186.5 376.5 186.5z" class="b"/><circle cx="402" cy="140.4" r="36.1" class="c"/><path d="M366.1 136.9c0 0.1 0 0.3 0 0.4 -1 11.9 8.8 22 20.8 21.6 0.8 0 1.6-0.1 2.4-0.2 17-1.7 30.6-15.4 32.2-32.4 0-0.1 0-0.3 0-0.4 1-11.9-8.8-22-20.8-21.6 -0.8 0-1.6 0.1-2.4 0.2C381.3 106.2 367.7 120 366.1 136.9z" class="d"/><path d="M222 310.1c-5.3 0-10.5-2-14.6-6 -22.1-22.1-22.1-58 0-80.1 10.7-10.7 24.9-16.6 40.1-16.6s29.4 5.9 40.1 16.6c8 8 8 21.1 0 29.1 -8 8-21.1 8-29.1 0 -2.9-2.9-6.8-4.5-10.9-4.5s-8 1.6-10.9 4.5c-6 6-6 15.8 0 21.9 8 8 8 21.1 0 29.1C232.5 308.1 227.2 310.1 222 310.1z" class="b"/><circle cx="247.5" cy="264" r="36.1" class="c"/><path d="M211.6 260.6c0 0.1 0 0.3 0 0.4 -1 11.9 8.8 22 20.8 21.6 0.8 0 1.6-0.1 2.4-0.2 17-1.7 30.6-15.4 32.2-32.4 0-0.1 0-0.3 0-0.4 1-11.9-8.8-22-20.8-21.6 -0.8 0-1.6 0.1-2.4 0.2C226.8 229.9 213.2 243.6 211.6 260.6z" class="d"/><circle cx="129.8" cy="294.6" r="7.7" class="a"/><circle cx="181.3" cy="294.6" r="7.7" class="a"/><circle cx="155.6" cy="248.3" r="7.7" class="a"/><circle cx="62.8" cy="341" r="7.7" class="a"/><circle cx="165.9" cy="454.3" r="7.7" class="a"/><circle cx="196.8" cy="413.1" r="7.7" class="a"/><circle cx="248.3" cy="351.3" r="7.7" class="a"/><circle cx="330.7" cy="320.4" r="7.7" class="a"/><circle cx="310.1" cy="341" r="7.7" class="a"/><circle cx="341" cy="371.9" r="7.7" class="a"/><circle cx="341" cy="433.7" r="7.7" class="a"/><circle cx="454.3" cy="217.4" r="7.7" class="a"/><circle cx="423.4" cy="423.4" r="7.7" class="a"/><circle cx="268.9" cy="31.9" r="7.7" class="a"/><circle cx="83.4" cy="124.7" r="7.7" class="a"/><circle cx="42.2" cy="186.5" r="7.7" class="a"/><circle cx="160.7" cy="201.9" r="7.7" class="a"/><circle cx="191.6" cy="186.5" r="7.7" class="a"/><circle cx="160.7" cy="171" r="7.7" class="a"/><circle cx="304.9" cy="248.3" r="7.7" class="a"/><circle cx="238" cy="93.7" r="7.7" class="a"/><circle cx="335.8" cy="186.5" r="7.7" class="a"/><circle cx="351.3" cy="232.8" r="7.7" class="a"/><circle cx="382.2" cy="232.8" r="7.7" class="a"/><circle cx="382.2" cy="263.7" r="7.7" class="a"/><circle cx="325.5" cy="78.3" r="7.7" class="a"/><circle cx="356.4" cy="62.8" r="7.7" class="a"/></svg>
